<svg xmlns="http://www.w3.org/2000/svg" viewBox="0 0 64 64" role="img" aria-label="Chesslol logo">
<defs>
<linearGradient id="g" x1="0" y1="0" x2="1" y2="1">
<stop offset="0%" stop-color="#6366F1" />
<stop offset="100%" stop-color="#A855F7" />
</linearGradient>
</defs>
<rect width="64" height="64" rx="16" fill="url(#g)" />
<g fill="#F8FAFC">
<path d="M43 45H21c-1.1 0-2 .9-2 2v2h26v-2c0-1.1-.9-2-2-2Z" />
<path d="M38 15c-.5 0-1 .2-1.4.5-.2-.3-.5-.5-.9-.5h-1c-.3 0-.5.1-.7.3-.2-.2-.4-.3-.7-.3h-2c-.6 0-1 .4-1 1v2c0 .6.4 1 1 1h.5c-.3.5-.5 1.1-.5 1.7 0 1.9 1.5 3.5 3.4 3.5h.1c-.8 1.1-1.3 2.5-1.3 4v4.8c0 .6.4 1 1 1h1c.6 0 1-.4 1-1v-4.8c0-1.5-.5-2.9-1.3-4h.1c1.9 0 3.4-1.6 3.4-3.5 0-.6-.2-1.2-.5-1.7h.5c.6 0 1-.4 1-1v-2c0-.6-.4-1-1-1Zm-7.3 8.2c-1 0-1.8-.8-1.8-1.8s.8-1.8 1.8-1.8 1.8.8 1.8 1.8-.8 1.8-1.8 1.8Z" opacity=".9"/>
<path d="M28 36c0-2.8 1.2-5.3 3-7.1v-3.9c-3.9.5-7 3.8-7 7.9v8h4v-4.9Z" opacity=".7"/>
<path d="M39 28.9v3.9c1.8 1.8 3 4.3 3 7.1v4.9h4v-8c0-4.1-3.1-7.4-7-7.9Z" opacity=".7"/>
</g>
</svg>
