<svg xmlns="http://www.w3.org/2000/svg" viewBox="0 0 64 64" role="img" aria-label="Chesslol logo">
  <defs>
    <linearGradient id="g" x1="0" y1="0" x2="1" y2="1">
      <stop offset="0%" stop-color="#6366F1" />
      <stop offset="100%" stop-color="#A855F7" />
    </linearGradient>
  </defs>
  <rect width="64" height="64" rx="16" fill="url(#g)" />
  <path
    d="M32 14c4.42 0 8 3.58 8 8 0 2.14-.87 4.08-2.27 5.49 2.86 1.16 4.89 3.96 4.89 7.26v4.75c0 1.97 1.35 3.66 3.28 4.11l1.1.25v4.14H16v-4.14l1.1-.25c1.93-.45 3.28-2.14 3.28-4.11v-4.75c0-3.3 2.03-6.1 4.89-7.26A7.987 7.987 0 0 1 24 22c0-4.42 3.58-8 8-8Zm0 4a4 4 0 1 0 0 8 4 4 0 0 0 0-8Z"
    fill="#F8FAFC"
  />
</svg>
